<mxfile host="Electron" modified="2023-05-27T20:09:49.822Z" agent="Mozilla/5.0 (Windows NT 10.0; Win64; x64) AppleWebKit/537.36 (KHTML, like Gecko) draw.io/21.2.8 Chrome/112.0.5615.165 Electron/24.2.0 Safari/537.36" etag="4IIV8NpbubRwqtRHSjp5" version="21.2.8" type="device">
  <diagram id="C5RBs43oDa-KdzZeNtuy" name="Page-1">
    <mxGraphModel dx="1863" dy="1775" grid="1" gridSize="10" guides="1" tooltips="1" connect="1" arrows="1" fold="1" page="1" pageScale="1" pageWidth="827" pageHeight="1169" math="0" shadow="0">
      <root>
        <mxCell id="WIyWlLk6GJQsqaUBKTNV-0" />
        <mxCell id="WIyWlLk6GJQsqaUBKTNV-1" parent="WIyWlLk6GJQsqaUBKTNV-0" />
        <mxCell id="H0204pPaUZqmbtJ3FAVp-44" style="edgeStyle=orthogonalEdgeStyle;rounded=0;orthogonalLoop=1;jettySize=auto;html=1;fontStyle=1" parent="WIyWlLk6GJQsqaUBKTNV-1" source="WIyWlLk6GJQsqaUBKTNV-3" target="H0204pPaUZqmbtJ3FAVp-43" edge="1">
          <mxGeometry relative="1" as="geometry" />
        </mxCell>
        <mxCell id="WIyWlLk6GJQsqaUBKTNV-3" value="Wake Up" style="rounded=1;whiteSpace=wrap;html=1;fontSize=12;glass=0;strokeWidth=1;shadow=0;fontStyle=1" parent="WIyWlLk6GJQsqaUBKTNV-1" vertex="1">
          <mxGeometry x="180" y="-320" width="120" height="40" as="geometry" />
        </mxCell>
        <mxCell id="H0204pPaUZqmbtJ3FAVp-92" style="edgeStyle=orthogonalEdgeStyle;rounded=0;orthogonalLoop=1;jettySize=auto;html=1;fontStyle=1" parent="WIyWlLk6GJQsqaUBKTNV-1" source="WIyWlLk6GJQsqaUBKTNV-7" target="H0204pPaUZqmbtJ3FAVp-37" edge="1">
          <mxGeometry relative="1" as="geometry">
            <mxPoint x="250" y="190" as="targetPoint" />
          </mxGeometry>
        </mxCell>
        <mxCell id="WIyWlLk6GJQsqaUBKTNV-7" value="Makes Reading" style="rounded=1;whiteSpace=wrap;html=1;fontSize=12;glass=0;strokeWidth=1;shadow=0;fontStyle=1" parent="WIyWlLk6GJQsqaUBKTNV-1" vertex="1">
          <mxGeometry x="180" y="80" width="120" height="40" as="geometry" />
        </mxCell>
        <mxCell id="H0204pPaUZqmbtJ3FAVp-10" style="edgeStyle=orthogonalEdgeStyle;rounded=0;orthogonalLoop=1;jettySize=auto;html=1;fontStyle=1" parent="WIyWlLk6GJQsqaUBKTNV-1" source="H0204pPaUZqmbtJ3FAVp-9" target="WIyWlLk6GJQsqaUBKTNV-3" edge="1">
          <mxGeometry relative="1" as="geometry" />
        </mxCell>
        <mxCell id="H0204pPaUZqmbtJ3FAVp-9" value="Long Sleep" style="rounded=1;whiteSpace=wrap;html=1;fontSize=12;glass=0;strokeWidth=1;shadow=0;fontStyle=1" parent="WIyWlLk6GJQsqaUBKTNV-1" vertex="1">
          <mxGeometry x="180" y="-400" width="120" height="40" as="geometry" />
        </mxCell>
        <mxCell id="H0204pPaUZqmbtJ3FAVp-21" style="edgeStyle=orthogonalEdgeStyle;rounded=0;orthogonalLoop=1;jettySize=auto;html=1;exitX=0.5;exitY=1;exitDx=0;exitDy=0;entryX=0.5;entryY=0;entryDx=0;entryDy=0;fontStyle=1" parent="WIyWlLk6GJQsqaUBKTNV-1" source="H0204pPaUZqmbtJ3FAVp-79" target="H0204pPaUZqmbtJ3FAVp-9" edge="1">
          <mxGeometry relative="1" as="geometry">
            <Array as="points">
              <mxPoint x="240" y="520" />
              <mxPoint x="650" y="520" />
              <mxPoint x="650" y="-440" />
              <mxPoint x="240" y="-440" />
            </Array>
          </mxGeometry>
        </mxCell>
        <mxCell id="H0204pPaUZqmbtJ3FAVp-24" style="edgeStyle=orthogonalEdgeStyle;rounded=0;orthogonalLoop=1;jettySize=auto;html=1;entryX=0.5;entryY=0;entryDx=0;entryDy=0;fontStyle=1" parent="WIyWlLk6GJQsqaUBKTNV-1" source="H0204pPaUZqmbtJ3FAVp-19" target="H0204pPaUZqmbtJ3FAVp-23" edge="1">
          <mxGeometry relative="1" as="geometry" />
        </mxCell>
        <mxCell id="H0204pPaUZqmbtJ3FAVp-27" style="edgeStyle=orthogonalEdgeStyle;rounded=0;orthogonalLoop=1;jettySize=auto;html=1;entryX=0.5;entryY=0;entryDx=0;entryDy=0;exitX=0;exitY=0.5;exitDx=0;exitDy=0;fontStyle=1" parent="WIyWlLk6GJQsqaUBKTNV-1" source="H0204pPaUZqmbtJ3FAVp-19" target="H0204pPaUZqmbtJ3FAVp-26" edge="1">
          <mxGeometry relative="1" as="geometry">
            <Array as="points">
              <mxPoint x="-60" y="280" />
              <mxPoint x="-60" y="-440" />
              <mxPoint x="50" y="-440" />
            </Array>
          </mxGeometry>
        </mxCell>
        <mxCell id="H0204pPaUZqmbtJ3FAVp-19" value="Complete" style="rhombus;whiteSpace=wrap;html=1;shadow=0;fontFamily=Helvetica;fontSize=12;align=center;strokeWidth=1;spacing=6;spacingTop=-4;fontStyle=1" parent="WIyWlLk6GJQsqaUBKTNV-1" vertex="1">
          <mxGeometry x="190" y="240" width="100" height="80" as="geometry" />
        </mxCell>
        <mxCell id="H0204pPaUZqmbtJ3FAVp-22" value="Yes" style="text;html=1;align=center;verticalAlign=middle;resizable=0;points=[];autosize=1;strokeColor=none;fillColor=none;fontStyle=1" parent="WIyWlLk6GJQsqaUBKTNV-1" vertex="1">
          <mxGeometry x="240" y="310" width="40" height="30" as="geometry" />
        </mxCell>
        <mxCell id="H0204pPaUZqmbtJ3FAVp-80" style="edgeStyle=orthogonalEdgeStyle;rounded=0;orthogonalLoop=1;jettySize=auto;html=1;fontStyle=1" parent="WIyWlLk6GJQsqaUBKTNV-1" source="H0204pPaUZqmbtJ3FAVp-23" target="H0204pPaUZqmbtJ3FAVp-79" edge="1">
          <mxGeometry relative="1" as="geometry" />
        </mxCell>
        <mxCell id="H0204pPaUZqmbtJ3FAVp-23" value="Send Readings to Bakend" style="rounded=1;whiteSpace=wrap;html=1;fontSize=12;glass=0;strokeWidth=1;shadow=0;fontStyle=1" parent="WIyWlLk6GJQsqaUBKTNV-1" vertex="1">
          <mxGeometry x="180" y="360" width="120" height="40" as="geometry" />
        </mxCell>
        <mxCell id="H0204pPaUZqmbtJ3FAVp-29" style="edgeStyle=orthogonalEdgeStyle;rounded=0;orthogonalLoop=1;jettySize=auto;html=1;entryX=0.5;entryY=0;entryDx=0;entryDy=0;fontStyle=1" parent="WIyWlLk6GJQsqaUBKTNV-1" source="H0204pPaUZqmbtJ3FAVp-26" target="WIyWlLk6GJQsqaUBKTNV-3" edge="1">
          <mxGeometry relative="1" as="geometry">
            <Array as="points">
              <mxPoint x="50" y="-340" />
              <mxPoint x="240" y="-340" />
            </Array>
          </mxGeometry>
        </mxCell>
        <mxCell id="H0204pPaUZqmbtJ3FAVp-72" value="" style="edgeStyle=orthogonalEdgeStyle;rounded=0;orthogonalLoop=1;jettySize=auto;html=1;fontStyle=1" parent="WIyWlLk6GJQsqaUBKTNV-1" source="H0204pPaUZqmbtJ3FAVp-26" target="H0204pPaUZqmbtJ3FAVp-9" edge="1">
          <mxGeometry relative="1" as="geometry" />
        </mxCell>
        <mxCell id="H0204pPaUZqmbtJ3FAVp-26" value="Short Sleep" style="rounded=1;whiteSpace=wrap;html=1;fontSize=12;glass=0;strokeWidth=1;shadow=0;fontStyle=1" parent="WIyWlLk6GJQsqaUBKTNV-1" vertex="1">
          <mxGeometry x="-10" y="-400" width="120" height="40" as="geometry" />
        </mxCell>
        <mxCell id="H0204pPaUZqmbtJ3FAVp-28" value="No" style="text;html=1;align=center;verticalAlign=middle;resizable=0;points=[];autosize=1;strokeColor=none;fillColor=none;fontStyle=1" parent="WIyWlLk6GJQsqaUBKTNV-1" vertex="1">
          <mxGeometry x="160" y="250" width="40" height="30" as="geometry" />
        </mxCell>
        <mxCell id="H0204pPaUZqmbtJ3FAVp-40" style="edgeStyle=orthogonalEdgeStyle;rounded=0;orthogonalLoop=1;jettySize=auto;html=1;fontStyle=1" parent="WIyWlLk6GJQsqaUBKTNV-1" source="H0204pPaUZqmbtJ3FAVp-37" target="H0204pPaUZqmbtJ3FAVp-19" edge="1">
          <mxGeometry relative="1" as="geometry" />
        </mxCell>
        <mxCell id="H0204pPaUZqmbtJ3FAVp-37" value="Store Record" style="rounded=1;whiteSpace=wrap;html=1;fontSize=12;glass=0;strokeWidth=1;shadow=0;fontStyle=1" parent="WIyWlLk6GJQsqaUBKTNV-1" vertex="1">
          <mxGeometry x="180" y="160" width="120" height="40" as="geometry" />
        </mxCell>
        <mxCell id="H0204pPaUZqmbtJ3FAVp-71" style="edgeStyle=orthogonalEdgeStyle;rounded=0;orthogonalLoop=1;jettySize=auto;html=1;fontStyle=1" parent="WIyWlLk6GJQsqaUBKTNV-1" source="H0204pPaUZqmbtJ3FAVp-43" target="H0204pPaUZqmbtJ3FAVp-70" edge="1">
          <mxGeometry relative="1" as="geometry" />
        </mxCell>
        <mxCell id="H0204pPaUZqmbtJ3FAVp-43" value="Check Wake Cause" style="rounded=1;whiteSpace=wrap;html=1;fontSize=12;glass=0;strokeWidth=1;shadow=0;fontStyle=1" parent="WIyWlLk6GJQsqaUBKTNV-1" vertex="1">
          <mxGeometry x="180" y="-240" width="120" height="40" as="geometry" />
        </mxCell>
        <mxCell id="H0204pPaUZqmbtJ3FAVp-49" style="edgeStyle=orthogonalEdgeStyle;rounded=0;orthogonalLoop=1;jettySize=auto;html=1;entryX=0.5;entryY=0;entryDx=0;entryDy=0;fontStyle=1" parent="WIyWlLk6GJQsqaUBKTNV-1" source="H0204pPaUZqmbtJ3FAVp-45" target="H0204pPaUZqmbtJ3FAVp-48" edge="1">
          <mxGeometry relative="1" as="geometry" />
        </mxCell>
        <mxCell id="H0204pPaUZqmbtJ3FAVp-53" style="edgeStyle=orthogonalEdgeStyle;rounded=0;orthogonalLoop=1;jettySize=auto;html=1;fontStyle=1" parent="WIyWlLk6GJQsqaUBKTNV-1" source="H0204pPaUZqmbtJ3FAVp-45" target="WIyWlLk6GJQsqaUBKTNV-7" edge="1">
          <mxGeometry relative="1" as="geometry" />
        </mxCell>
        <mxCell id="H0204pPaUZqmbtJ3FAVp-45" value="Water Leak" style="rhombus;whiteSpace=wrap;html=1;shadow=0;fontFamily=Helvetica;fontSize=12;align=center;strokeWidth=1;spacing=6;spacingTop=-4;fontStyle=1" parent="WIyWlLk6GJQsqaUBKTNV-1" vertex="1">
          <mxGeometry x="190" y="-40" width="100" height="80" as="geometry" />
        </mxCell>
        <mxCell id="h6O8TLKM89ig_TCg-JGP-9" style="edgeStyle=orthogonalEdgeStyle;rounded=0;orthogonalLoop=1;jettySize=auto;html=1;entryX=0.5;entryY=0;entryDx=0;entryDy=0;" parent="WIyWlLk6GJQsqaUBKTNV-1" source="H0204pPaUZqmbtJ3FAVp-48" target="h6O8TLKM89ig_TCg-JGP-0" edge="1">
          <mxGeometry relative="1" as="geometry">
            <Array as="points">
              <mxPoint x="434" y="160" />
              <mxPoint x="720" y="160" />
              <mxPoint x="720" y="-480" />
              <mxPoint x="420" y="-480" />
            </Array>
          </mxGeometry>
        </mxCell>
        <mxCell id="H0204pPaUZqmbtJ3FAVp-48" value="Report Water Leak to Backend" style="rounded=1;whiteSpace=wrap;html=1;fontSize=12;glass=0;strokeWidth=1;shadow=0;fontStyle=1" parent="WIyWlLk6GJQsqaUBKTNV-1" vertex="1">
          <mxGeometry x="374" y="80" width="120" height="40" as="geometry" />
        </mxCell>
        <mxCell id="H0204pPaUZqmbtJ3FAVp-51" value="Yes" style="text;html=1;align=center;verticalAlign=middle;resizable=0;points=[];autosize=1;strokeColor=none;fillColor=none;fontStyle=1" parent="WIyWlLk6GJQsqaUBKTNV-1" vertex="1">
          <mxGeometry x="280" y="-30" width="40" height="30" as="geometry" />
        </mxCell>
        <mxCell id="H0204pPaUZqmbtJ3FAVp-52" value="No" style="text;html=1;align=center;verticalAlign=middle;resizable=0;points=[];autosize=1;strokeColor=none;fillColor=none;fontStyle=1" parent="WIyWlLk6GJQsqaUBKTNV-1" vertex="1">
          <mxGeometry x="240" y="30" width="40" height="30" as="geometry" />
        </mxCell>
        <mxCell id="h6O8TLKM89ig_TCg-JGP-6" style="edgeStyle=orthogonalEdgeStyle;rounded=0;orthogonalLoop=1;jettySize=auto;html=1;" parent="WIyWlLk6GJQsqaUBKTNV-1" source="H0204pPaUZqmbtJ3FAVp-56" edge="1">
          <mxGeometry relative="1" as="geometry">
            <mxPoint x="650" y="40" as="targetPoint" />
          </mxGeometry>
        </mxCell>
        <mxCell id="h6O8TLKM89ig_TCg-JGP-8" style="edgeStyle=orthogonalEdgeStyle;rounded=0;orthogonalLoop=1;jettySize=auto;html=1;" parent="WIyWlLk6GJQsqaUBKTNV-1" source="H0204pPaUZqmbtJ3FAVp-56" edge="1">
          <mxGeometry relative="1" as="geometry">
            <mxPoint x="-60" y="280" as="targetPoint" />
            <Array as="points">
              <mxPoint x="540" y="560" />
              <mxPoint x="-59" y="560" />
              <mxPoint x="-59" y="280" />
            </Array>
          </mxGeometry>
        </mxCell>
        <mxCell id="H0204pPaUZqmbtJ3FAVp-56" value="Readings started" style="rhombus;whiteSpace=wrap;html=1;shadow=0;fontFamily=Helvetica;fontSize=12;align=center;strokeWidth=1;spacing=6;spacingTop=-4;fontStyle=1" parent="WIyWlLk6GJQsqaUBKTNV-1" vertex="1">
          <mxGeometry x="490" width="100" height="80" as="geometry" />
        </mxCell>
        <mxCell id="H0204pPaUZqmbtJ3FAVp-59" value="Yes" style="text;html=1;align=center;verticalAlign=middle;resizable=0;points=[];autosize=1;strokeColor=none;fillColor=none;fontStyle=1" parent="WIyWlLk6GJQsqaUBKTNV-1" vertex="1">
          <mxGeometry x="540" y="70" width="40" height="30" as="geometry" />
        </mxCell>
        <mxCell id="H0204pPaUZqmbtJ3FAVp-60" value="No" style="text;html=1;align=center;verticalAlign=middle;resizable=0;points=[];autosize=1;strokeColor=none;fillColor=none;fontStyle=1" parent="WIyWlLk6GJQsqaUBKTNV-1" vertex="1">
          <mxGeometry x="580" y="10" width="40" height="30" as="geometry" />
        </mxCell>
        <mxCell id="H0204pPaUZqmbtJ3FAVp-74" style="edgeStyle=orthogonalEdgeStyle;rounded=0;orthogonalLoop=1;jettySize=auto;html=1;entryX=0.5;entryY=0;entryDx=0;entryDy=0;fontStyle=1" parent="WIyWlLk6GJQsqaUBKTNV-1" source="H0204pPaUZqmbtJ3FAVp-70" target="H0204pPaUZqmbtJ3FAVp-73" edge="1">
          <mxGeometry relative="1" as="geometry" />
        </mxCell>
        <mxCell id="H0204pPaUZqmbtJ3FAVp-76" style="edgeStyle=orthogonalEdgeStyle;rounded=0;orthogonalLoop=1;jettySize=auto;html=1;entryX=0.5;entryY=0;entryDx=0;entryDy=0;fontStyle=1" parent="WIyWlLk6GJQsqaUBKTNV-1" source="H0204pPaUZqmbtJ3FAVp-70" target="H0204pPaUZqmbtJ3FAVp-45" edge="1">
          <mxGeometry relative="1" as="geometry" />
        </mxCell>
        <mxCell id="H0204pPaUZqmbtJ3FAVp-70" value="Deep Sleep" style="rhombus;whiteSpace=wrap;html=1;shadow=0;fontFamily=Helvetica;fontSize=12;align=center;strokeWidth=1;spacing=6;spacingTop=-4;fontStyle=1" parent="WIyWlLk6GJQsqaUBKTNV-1" vertex="1">
          <mxGeometry x="190" y="-160" width="100" height="80" as="geometry" />
        </mxCell>
        <mxCell id="h6O8TLKM89ig_TCg-JGP-1" style="edgeStyle=orthogonalEdgeStyle;rounded=0;orthogonalLoop=1;jettySize=auto;html=1;entryX=0.5;entryY=0;entryDx=0;entryDy=0;" parent="WIyWlLk6GJQsqaUBKTNV-1" source="H0204pPaUZqmbtJ3FAVp-73" target="H0204pPaUZqmbtJ3FAVp-56" edge="1">
          <mxGeometry relative="1" as="geometry" />
        </mxCell>
        <mxCell id="H0204pPaUZqmbtJ3FAVp-73" value="Report Cause to Bakend" style="rounded=1;whiteSpace=wrap;html=1;fontSize=12;glass=0;strokeWidth=1;shadow=0;fontStyle=1" parent="WIyWlLk6GJQsqaUBKTNV-1" vertex="1">
          <mxGeometry x="480" y="-80" width="120" height="40" as="geometry" />
        </mxCell>
        <mxCell id="H0204pPaUZqmbtJ3FAVp-77" value="No" style="text;html=1;align=center;verticalAlign=middle;resizable=0;points=[];autosize=1;strokeColor=none;fillColor=none;fontStyle=1" parent="WIyWlLk6GJQsqaUBKTNV-1" vertex="1">
          <mxGeometry x="280" y="-150" width="40" height="30" as="geometry" />
        </mxCell>
        <mxCell id="H0204pPaUZqmbtJ3FAVp-78" value="Yes" style="text;html=1;align=center;verticalAlign=middle;resizable=0;points=[];autosize=1;strokeColor=none;fillColor=none;fontStyle=1" parent="WIyWlLk6GJQsqaUBKTNV-1" vertex="1">
          <mxGeometry x="240" y="-80" width="40" height="30" as="geometry" />
        </mxCell>
        <mxCell id="H0204pPaUZqmbtJ3FAVp-79" value="Erase Records" style="rounded=1;whiteSpace=wrap;html=1;fontSize=12;glass=0;strokeWidth=1;shadow=0;fontStyle=1" parent="WIyWlLk6GJQsqaUBKTNV-1" vertex="1">
          <mxGeometry x="180" y="440" width="120" height="40" as="geometry" />
        </mxCell>
        <mxCell id="h6O8TLKM89ig_TCg-JGP-10" style="edgeStyle=orthogonalEdgeStyle;rounded=0;orthogonalLoop=1;jettySize=auto;html=1;exitX=0.5;exitY=1;exitDx=0;exitDy=0;" parent="WIyWlLk6GJQsqaUBKTNV-1" source="h6O8TLKM89ig_TCg-JGP-0" edge="1">
          <mxGeometry relative="1" as="geometry">
            <mxPoint x="420" y="-420" as="targetPoint" />
          </mxGeometry>
        </mxCell>
        <mxCell id="h6O8TLKM89ig_TCg-JGP-0" value="Eternal Sleep" style="rounded=1;whiteSpace=wrap;html=1;fontSize=12;glass=0;strokeWidth=1;shadow=0;fontStyle=1" parent="WIyWlLk6GJQsqaUBKTNV-1" vertex="1">
          <mxGeometry x="360" y="-400" width="120" height="40" as="geometry" />
        </mxCell>
      </root>
    </mxGraphModel>
  </diagram>
</mxfile>
